<svg data-v-423bf9ae="" xmlns="http://www.w3.org/2000/svg" viewBox="0 0 562 90" class="iconLeft"><!----><!----><!----><g data-v-423bf9ae="" id="fd73a980-b946-4d74-ae37-290cdfde94d5" fill="#FFFFFF" transform="matrix(6.122449456230433,0,0,6.122449456230433,116.55334701194403,3.1836738096877255)"><path d="M3.31 1.96L3.31 1.96L3.31 1.96Q4.94 1.96 5.49 3.01L5.49 3.01L5.49 3.01Q5.87 3.80 5.87 4.56L5.87 4.56L5.86 4.56L5.86 4.56Q4.74 4.66 4.33 4.66L4.33 4.66L4.33 4.66Q4.33 4.12 4.00 3.75L4.00 3.75L4.00 3.75Q3.68 3.57 3.42 3.57L3.42 3.57L3.14 3.57L3.14 3.57Q2.45 3.57 2.30 4.11L2.30 4.11L2.30 4.11Q2.26 4.27 2.26 4.35L2.26 4.35L2.26 4.50L2.26 4.50Q2.26 5.26 3.07 5.61L3.07 5.61L3.07 5.61Q3.14 5.67 4.19 6.12L4.19 6.12L4.19 6.12Q4.75 6.38 5.23 6.76L5.23 6.76L5.23 6.77L3.51 6.77L3.51 6.97L5.78 6.97L5.78 7.24L6.06 7.24L6.06 10.21L5.50 10.21L5.50 11.73L1.16 11.73L1.16 10.21L0.13 10.21L0.13 9.18L0.71 9.18L0.71 8.83L0.13 8.83L0.13 8.59L2.12 8.59L2.12 10.21L4.16 10.21L4.16 7.77L2.63 7.77L2.63 6.97L0.74 6.97L0.74 6.77L1.65 6.77L1.65 6.76L1.65 6.76Q0.45 5.96 0.45 4.50L0.45 4.50L0.45 4.37L0.45 4.37Q0.45 3.14 1.20 2.51L1.20 2.51L1.20 2.51Q1.89 1.96 3.31 1.96ZM5.78 6.97L5.78 6.77L6.47 6.77L6.47 6.97L5.78 6.97ZM-0.53 9.18L-0.53 8.83L0.13 8.83L0.13 9.18L-0.53 9.18ZM3.86 8.83L3.86 8.83L4.06 8.83L4.06 8.83Q4.09 8.83 4.09 8.86L4.09 8.86L4.09 8.91L3.92 8.91L3.92 8.97L4.07 8.97L4.07 9.02L4.07 9.02Q4.07 9.05 4.05 9.05L4.05 9.05L3.92 9.05L3.92 9.12L4.09 9.12L4.09 9.17L4.09 9.17Q4.09 9.19 4.06 9.19L4.06 9.19L3.86 9.19L3.86 9.19Q3.82 9.19 3.82 9.17L3.82 9.17L3.82 8.86L3.82 8.86Q3.83 8.83 3.86 8.83ZM3.77 9.31L3.77 9.31L3.83 9.31L3.83 9.31Q3.85 9.31 3.95 9.43L3.95 9.43L3.95 9.43Q4.00 9.31 4.03 9.31L4.03 9.31L4.07 9.31L4.07 9.31Q4.11 9.31 4.11 9.34L4.11 9.34L4.11 9.34Q3.96 9.50 3.96 9.68L3.96 9.68L3.92 9.68L3.92 9.68Q3.88 9.68 3.87 9.49L3.87 9.49L3.87 9.49Q3.77 9.36 3.77 9.31ZM3.73 9.79L3.73 9.79L3.79 9.79L3.79 9.79Q3.83 9.79 3.87 10.00L3.87 10.00L3.90 10.00L3.90 10.00Q3.94 9.79 3.98 9.79L3.98 9.79L4.05 9.79L4.05 9.79Q4.07 9.80 4.07 9.82L4.07 9.82L4.07 10.12L4.07 10.12Q4.07 10.16 4.05 10.16L4.05 10.16L4.00 10.16L4.00 9.95L3.98 9.95L3.92 10.16L3.87 10.16L3.87 10.16Q3.83 10.16 3.79 9.95L3.79 9.95L3.77 9.95L3.77 10.16L3.73 10.16L3.73 10.16Q3.69 10.16 3.69 10.12L3.69 10.12L3.69 9.82L3.69 9.82Q3.70 9.79 3.73 9.79ZM5.60 10.62L5.60 10.29L5.76 10.29L5.76 10.29Q5.89 10.29 5.89 10.42L5.89 10.42L5.89 10.42Q5.86 10.42 5.86 10.45L5.86 10.45L5.86 10.45Q5.91 10.51 5.91 10.56L5.91 10.56L5.91 10.56Q5.87 10.66 5.73 10.66L5.73 10.66L5.63 10.66L5.63 10.66Q5.60 10.66 5.60 10.62L5.60 10.62ZM5.79 10.37L5.69 10.37L5.69 10.43L5.76 10.43L5.76 10.43Q5.79 10.43 5.79 10.40L5.79 10.40L5.79 10.37ZM5.78 10.49L5.69 10.49L5.69 10.58L5.78 10.58L5.78 10.58Q5.81 10.58 5.81 10.54L5.81 10.54L5.81 10.53L5.81 10.53Q5.81 10.49 5.78 10.49L5.78 10.49ZM5.60 11.10L5.60 10.77L5.67 10.77L5.67 10.77Q5.70 10.77 5.81 10.99L5.81 10.99L5.82 10.99L5.82 10.77L5.91 10.77L5.91 11.10L5.91 11.10Q5.91 11.14 5.87 11.14L5.87 11.14L5.84 11.14L5.84 11.14Q5.82 11.14 5.68 10.93L5.68 10.93L5.68 11.10L5.68 11.10Q5.68 11.14 5.65 11.14L5.65 11.14L5.63 11.14L5.63 11.14Q5.60 11.14 5.60 11.10L5.60 11.10ZM6.28 3.57L6.28 1.93L12.02 1.93L12.02 3.57L10.12 3.57L10.12 10.34L10.99 10.34L10.99 10.54L10.12 10.54L10.12 11.29L9.61 11.29L9.61 11.55L9.97 11.55L9.97 11.73L8.23 11.73L8.23 11.73Q8.20 11.73 8.20 11.70L8.20 11.70L8.20 3.57L6.28 3.57ZM10.11 10.34L9.45 10.34L9.45 10.54L10.11 10.54L10.11 10.34ZM15.36 1.95L15.36 1.95L15.36 1.95Q17.47 1.95 18.13 3.42L18.13 3.42L18.13 3.42Q18.50 4.14 18.50 6.19L18.50 6.19L18.50 6.23L17.78 6.23L17.78 6.56L18.50 6.56L18.50 10.10L18.03 10.10L18.03 11.37L17.08 11.37L17.08 11.73L13.75 11.73L13.75 11.37L13.35 11.37L13.35 10.10L12.50 10.10L12.50 9.10L13.00 9.10L13.00 8.57L12.50 8.57L12.50 9.10L11.29 9.10L11.29 8.57L12.20 8.57L12.20 8.57Q12.19 7.38 12.19 6.74L12.19 6.74L12.19 5.91L12.19 5.91Q12.19 3.58 12.97 2.80L12.97 2.80L12.97 2.80Q13.69 1.95 15.36 1.95ZM14.16 5.32L14.16 5.32L14.18 5.32L14.16 5.35L14.16 6.23L13.43 6.23L13.43 6.56L14.16 6.56L14.16 6.56Q14.15 8.67 14.15 9.75L14.15 9.75L14.15 10.10L15.78 10.10L15.78 9.56L16.54 9.56L16.54 9.54L16.54 9.54Q16.54 8.54 16.52 6.75L16.52 6.75L16.52 6.75Q16.52 6.68 16.54 6.38L16.54 6.38L16.54 6.38Q16.54 4.45 16.31 4.01L16.31 4.01L16.31 4.01Q16.08 3.58 15.46 3.58L15.46 3.58L15.22 3.58L15.22 3.58Q14.47 3.58 14.29 4.24L14.29 4.24L14.29 4.24Q14.21 4.56 14.16 5.32ZM18.50 6.56L18.50 6.23L19.68 6.23L19.68 6.56L18.50 6.56ZM19.24 7.49L19.24 1.96L22.59 1.96L22.59 1.96Q24.27 1.96 24.76 3.14L24.76 3.14L24.76 3.14Q24.97 3.75 24.97 4.53L24.97 4.53L24.97 4.94L24.97 4.94Q24.97 6.36 24.35 7.11L24.35 7.11L23.64 7.11L23.64 7.47L24.73 7.47L24.73 9.81L24.08 9.81L24.08 10.17L25.05 10.17L25.05 11.55L23.02 11.55L23.02 9.34L22.23 9.34L22.23 7.92L20.86 7.92L20.86 10.34L21.16 10.34L21.16 11.73L19.27 11.73L19.27 11.73Q19.24 11.73 19.24 11.70L19.24 11.70L19.24 7.77L20.08 7.77L20.08 7.49L19.24 7.49ZM21.96 3.55L21.16 3.55L21.16 6.31L21.62 6.31L21.62 6.31Q22.67 6.31 22.83 6.11L22.83 6.11L22.83 6.11Q23.00 6.00 23.10 5.67L23.10 5.67L23.82 5.67L23.82 5.32L23.17 5.32L23.17 5.35L23.17 5.35Q23.11 5.67 23.08 5.67L23.08 5.67L22.15 5.67L22.15 5.32L23.13 5.32L23.13 5.32Q23.17 5.32 23.17 5.29L23.17 5.29L23.17 5.29Q23.18 4.87 23.18 4.81L23.18 4.81L23.18 4.81Q23.18 3.90 22.87 3.69L22.87 3.69L22.87 3.69Q22.62 3.55 21.96 3.55L21.96 3.55ZM25.95 6.80L25.95 2.00L30.74 2.00L30.74 3.60L30.74 3.60Q30.74 3.63 30.71 3.63L30.71 3.63L27.86 3.63L27.86 5.74L30.41 5.74L30.41 5.76L30.41 5.76Q30.41 5.84 30.39 6.79L30.39 6.79L30.39 6.79Q30.37 6.79 30.37 6.80L30.37 6.80L30.48 6.80L30.48 7.29L28.27 7.29L28.27 9.29L27.68 9.29L27.68 9.49L28.27 9.49L28.27 10.10L30.78 10.10L30.78 10.32L30.58 10.32L30.58 11.52L27.58 11.52L27.58 11.73L26.16 11.73L26.16 8.24L25.95 8.24L25.95 7.01L24.39 7.01L24.39 6.80L25.95 6.80ZM26.76 6.80L25.96 6.80L25.96 7.01L26.76 7.01L26.76 6.80ZM38.01 1.95L38.01 1.95L38.01 1.95Q39.81 1.95 40.28 3.12L40.28 3.12L40.28 3.12Q40.54 3.77 40.54 4.79L40.54 4.79L40.54 4.79Q40.54 6.53 38.88 8.15L38.88 8.15L39.99 8.15L39.99 8.26L38.82 8.26L38.86 8.15L38.20 8.15L38.20 8.26L38.82 8.26L38.82 8.83L37.94 8.83L37.94 9.34L38.29 9.34L38.29 10.05L40.65 10.05L40.65 11.57L38.29 11.57L38.29 11.73L35.25 11.73L35.25 10.18L35.83 10.18L35.83 8.51L36.36 8.51L36.36 7.20L36.76 7.20L36.76 7.05L37.67 7.05L37.67 7.05Q38.21 6.46 38.38 6.11L38.38 6.11L38.38 6.11Q38.73 5.54 38.73 4.80L38.73 4.80L38.73 4.80Q38.73 3.90 38.44 3.66L38.44 3.66L38.44 3.66Q38.23 3.55 38.02 3.55L38.02 3.55L37.83 3.55L37.83 3.55Q37.21 3.55 37.02 4.35L37.02 4.35L37.02 4.35Q36.91 4.79 36.91 5.18L36.91 5.18L36.91 5.18Q36.90 5.18 36.90 5.20L36.90 5.20L36.90 5.20Q35.37 5.07 35.25 5.07L35.25 5.07L35.25 5.07Q35.25 3.95 35.62 3.07L35.62 3.07L35.62 3.07Q35.79 2.74 36.18 2.40L36.18 2.40L36.18 2.40Q36.83 1.95 38.01 1.95ZM37.57 7.20L37.57 7.20L38.44 7.20L38.44 7.05L37.72 7.05L37.72 7.05Q37.70 7.05 37.57 7.20ZM44.85 6.62L44.85 1.94L47.82 1.94L47.82 1.94Q49.69 1.94 50.39 3.21L50.39 3.21L50.39 3.21Q50.98 4.20 50.98 6.48L50.98 6.48L51.28 6.48L51.28 8.82L48.38 8.82L48.38 8.56L49.29 8.56L49.29 6.48L49.03 6.48L49.03 5.63L49.03 5.63Q49.03 4.18 48.38 3.79L48.38 3.79L48.38 3.79Q48.00 3.57 47.17 3.57L47.17 3.57L46.77 3.57L46.77 6.43L47.04 6.43L47.04 8.82L45.08 8.82L45.08 6.62L44.85 6.62ZM49.08 8.09L49.08 8.09L49.17 8.09L49.17 8.34L49.23 8.34L49.23 8.42L49.17 8.42L49.17 8.52L49.08 8.52L49.08 8.42L48.90 8.42L48.90 8.36L48.90 8.36Q49.08 8.11 49.08 8.09ZM48.99 8.34L48.99 8.34L49.08 8.34L49.08 8.24L49.08 8.24Q49.05 8.24 48.99 8.34ZM47.26 8.54L47.13 8.33L47.23 8.33L47.23 8.33Q47.25 8.33 47.33 8.44L47.33 8.44L47.33 8.44Q47.40 8.36 47.40 8.33L47.40 8.33L47.51 8.33L47.51 8.34L47.51 8.34Q47.40 8.50 47.40 8.54L47.40 8.54L47.53 8.75L47.40 8.75L47.40 8.75Q47.40 8.70 47.32 8.62L47.32 8.62L47.32 8.62Q47.26 8.74 47.22 8.75L47.22 8.75L47.12 8.75L47.12 8.75Q47.23 8.55 47.26 8.54L47.26 8.54ZM43.98 9.13L43.98 8.82L44.86 8.82L44.86 9.13L47.04 9.13L47.04 9.78L48.38 9.78L48.38 9.13L51.28 9.13L51.28 9.78L49.29 9.78L49.29 11.52L47.04 11.52L47.04 11.73L44.88 11.73L44.88 11.73Q44.85 11.73 44.85 11.70L44.85 11.70L44.85 9.13L43.98 9.13ZM47.04 9.13L47.04 8.82L48.38 8.82L48.38 9.13L47.04 9.13ZM51.28 9.13L51.28 8.82L53.20 8.82L53.20 9.13L51.28 9.13ZM49.52 9.84L49.52 9.84L49.64 9.84L49.64 9.84Q49.75 10.16 49.78 10.28L49.78 10.28L49.70 10.28L49.70 10.28Q49.67 10.28 49.65 10.19L49.65 10.19L49.52 10.19L49.52 10.19Q49.49 10.19 49.47 10.28L49.47 10.28L49.37 10.28L49.37 10.27L49.37 10.27Q49.37 10.25 49.52 9.84ZM49.90 9.84L49.90 9.84L50.00 9.84L50.08 10.12L50.09 10.12L50.09 10.12Q50.09 10.09 50.18 9.84L50.18 9.84L50.28 9.84L50.28 9.84Q50.28 9.89 50.14 10.28L50.14 10.28L50.05 10.28L50.05 10.28Q50.00 10.28 49.90 9.84ZM50.44 10.28L50.44 9.84L50.56 9.84L50.56 10.28L50.44 10.28ZM50.75 10.28L50.75 9.84L50.93 9.84L50.93 9.84Q51.15 9.84 51.15 10.08L51.15 10.08L51.15 10.08Q51.15 10.25 50.93 10.28L50.93 10.28L50.75 10.28ZM50.97 9.94L50.87 9.94L50.87 10.19L50.97 10.19L50.97 10.19Q50.99 10.19 51.03 10.12L51.03 10.12L51.03 10.00L51.03 10.00Q51.03 9.98 50.97 9.94L50.97 9.94ZM49.59 9.97L49.57 9.97L49.57 9.97Q49.57 9.99 49.53 10.10L49.53 10.10L49.62 10.10L49.62 10.10Q49.59 9.99 49.59 9.97L49.59 9.97ZM55.42 1.95L55.42 1.95L55.42 1.95Q57.52 1.95 58.19 3.42L58.19 3.42L58.19 3.42Q58.56 4.14 58.56 6.19L58.56 6.19L58.56 6.23L57.84 6.23L57.84 6.56L58.56 6.56L58.56 10.10L58.08 10.10L58.08 11.37L57.13 11.37L57.13 11.73L53.81 11.73L53.81 11.37L53.41 11.37L53.41 10.10L52.55 10.10L52.55 9.10L53.06 9.10L53.06 8.57L52.55 8.57L52.55 9.10L51.34 9.10L51.34 8.57L52.26 8.57L52.26 8.57Q52.25 7.38 52.25 6.74L52.25 6.74L52.25 5.91L52.25 5.91Q52.25 3.58 53.03 2.80L53.03 2.80L53.03 2.80Q53.75 1.95 55.42 1.95ZM54.22 5.32L54.22 5.32L54.24 5.32L54.22 5.35L54.22 6.23L53.49 6.23L53.49 6.56L54.22 6.56L54.22 6.56Q54.21 8.67 54.21 9.75L54.21 9.75L54.21 10.10L55.84 10.10L55.84 9.56L56.59 9.56L56.59 9.54L56.59 9.54Q56.59 8.54 56.58 6.75L56.58 6.75L56.58 6.75Q56.58 6.68 56.59 6.38L56.59 6.38L56.59 6.38Q56.59 4.45 56.37 4.01L56.37 4.01L56.37 4.01Q56.14 3.58 55.51 3.58L55.51 3.58L55.28 3.58L55.28 3.58Q54.53 3.58 54.35 4.24L54.35 4.24L54.35 4.24Q54.27 4.56 54.22 5.32ZM58.56 6.56L58.56 6.23L59.74 6.23L59.74 6.56L58.56 6.56ZM63.05 1.95L63.05 1.95L63.05 1.95Q65.16 1.95 65.82 3.42L65.82 3.42L65.82 3.42Q66.20 4.14 66.20 6.19L66.20 6.19L66.20 6.23L65.47 6.23L65.47 6.56L66.20 6.56L66.20 10.10L65.72 10.10L65.72 11.37L64.77 11.37L64.77 11.73L61.45 11.73L61.45 11.37L61.04 11.37L61.04 10.10L60.19 10.10L60.19 9.10L60.70 9.10L60.70 8.57L60.19 8.57L60.19 9.10L58.98 9.10L58.98 8.57L59.90 8.57L59.90 8.57Q59.88 7.38 59.88 6.74L59.88 6.74L59.88 5.91L59.88 5.91Q59.88 3.58 60.67 2.80L60.67 2.80L60.67 2.80Q61.39 1.95 63.05 1.95ZM61.86 5.32L61.86 5.32L61.88 5.32L61.86 5.35L61.86 6.23L61.13 6.23L61.13 6.56L61.86 6.56L61.86 6.56Q61.84 8.67 61.84 9.75L61.84 9.75L61.84 10.10L63.48 10.10L63.48 9.56L64.23 9.56L64.23 9.54L64.23 9.54Q64.23 8.54 64.22 6.75L64.22 6.75L64.22 6.75Q64.22 6.68 64.23 6.38L64.23 6.38L64.23 6.38Q64.23 4.45 64.00 4.01L64.00 4.01L64.00 4.01Q63.77 3.58 63.15 3.58L63.15 3.58L62.91 3.58L62.91 3.58Q62.17 3.58 61.99 4.24L61.99 4.24L61.99 4.24Q61.91 4.56 61.86 5.32ZM66.20 6.56L66.20 6.23L67.38 6.23L67.38 6.56L66.20 6.56ZM66.93 7.49L66.93 1.96L70.28 1.96L70.28 1.96Q71.96 1.96 72.45 3.14L72.45 3.14L72.45 3.14Q72.67 3.75 72.67 4.53L72.67 4.53L72.67 4.94L72.67 4.94Q72.67 6.36 72.04 7.11L72.04 7.11L71.33 7.11L71.33 7.47L72.42 7.47L72.42 9.81L71.78 9.81L71.78 10.17L72.75 10.17L72.75 11.55L70.71 11.55L70.71 9.34L69.92 9.34L69.92 7.92L68.56 7.92L68.56 10.34L68.85 10.34L68.85 11.73L66.96 11.73L66.96 11.73Q66.93 11.73 66.93 11.70L66.93 11.70L66.93 7.77L67.77 7.77L67.77 7.49L66.93 7.49ZM69.66 3.55L68.85 3.55L68.85 6.31L69.32 6.31L69.32 6.31Q70.36 6.31 70.53 6.11L70.53 6.11L70.53 6.11Q70.70 6.00 70.79 5.67L70.79 5.67L71.52 5.67L71.52 5.32L70.86 5.32L70.86 5.35L70.86 5.35Q70.81 5.67 70.78 5.67L70.78 5.67L69.84 5.67L69.84 5.32L70.83 5.32L70.83 5.32Q70.86 5.32 70.86 5.29L70.86 5.29L70.86 5.29Q70.88 4.87 70.88 4.81L70.88 4.81L70.88 4.81Q70.88 3.90 70.56 3.69L70.56 3.69L70.56 3.69Q70.31 3.55 69.66 3.55L69.66 3.55Z"></path></g><!----><g data-v-423bf9ae="" id="e6be0465-73b7-4f27-9f2c-dd215790f89c" transform="matrix(2.7842233292419,0,0,2.7842233292419,0.34577343844434694,1.0000000000000426)" stroke="none" fill="#88DF95"><path d="M5.78 16L16 5.78 26.22 16 16 26.22z"></path><path d="M32 3.714A3.714 3.714 0 0 0 28.286 0c-1.659 0-3.047 1.095-3.524 2.596H7.238C6.761 1.095 5.373 0 3.714 0A3.714 3.714 0 0 0 0 3.714a3.7 3.7 0 0 0 2.597 3.524v17.524A3.7 3.7 0 0 0 0 28.286 3.714 3.714 0 0 0 3.714 32c1.506 0 2.795-.9 3.378-2.188h17.816A3.707 3.707 0 0 0 28.286 32a3.709 3.709 0 1 0 1.526-7.093V7.092A3.707 3.707 0 0 0 32 3.714zm-3.188 20.911c-.173-.025-.346-.053-.526-.053a3.714 3.714 0 0 0-3.714 3.714c0 .18.028.353.053.526H7.375c.025-.173.053-.346.053-.526a3.714 3.714 0 0 0-3.714-3.714c-.04 0-.077.01-.117.012V7.416c.04.001.077.012.117.012a3.714 3.714 0 0 0 3.714-3.714c0-.04-.011-.078-.012-.117h17.168c-.001.04-.012.077-.012.117a3.714 3.714 0 0 0 3.714 3.714c.18 0 .352-.028.526-.053v17.25z"></path></g><!----></svg>